<?xml version="1.0" standalone="no"?><svg xmlns="http://www.w3.org/2000/svg" viewBox="0 0 1440 320"><path fill="#000b76" fill-opacity="1" d="M0,160L24,138.7C48,117,96,75,144,53.3C192,32,240,32,288,37.3C336,43,384,53,432,90.7C480,128,528,192,576,208C624,224,672,192,720,160C768,128,816,96,864,85.3C912,75,960,85,1008,96C1056,107,1104,117,1152,117.3C1200,117,1248,107,1296,101.3C1344,96,1392,96,1416,96L1440,96L1440,0L1416,0C1392,0,1344,0,1296,0C1248,0,1200,0,1152,0C1104,0,1056,0,1008,0C960,0,912,0,864,0C816,0,768,0,720,0C672,0,624,0,576,0C528,0,480,0,432,0C384,0,336,0,288,0C240,0,192,0,144,0C96,0,48,0,24,0L0,0Z"></path></svg>