<?xml version="1.0" standalone="no"?><svg xmlns="http://www.w3.org/2000/svg" viewBox="0 0 1440 320"><path fill="white" fill-opacity="1" d="M0,224L18.5,208C36.9,192,74,160,111,165.3C147.7,171,185,213,222,224C258.5,235,295,213,332,192C369.2,171,406,149,443,133.3C480,117,517,107,554,96C590.8,85,628,75,665,96C701.5,117,738,171,775,176C812.3,181,849,139,886,154.7C923.1,171,960,245,997,261.3C1033.8,277,1071,235,1108,197.3C1144.6,160,1182,128,1218,128C1255.4,128,1292,160,1329,181.3C1366.2,203,1403,213,1422,218.7L1440,224L1440,0L1421.5,0C1403.1,0,1366,0,1329,0C1292.3,0,1255,0,1218,0C1181.5,0,1145,0,1108,0C1070.8,0,1034,0,997,0C960,0,923,0,886,0C849.2,0,812,0,775,0C738.5,0,702,0,665,0C627.7,0,591,0,554,0C516.9,0,480,0,443,0C406.2,0,369,0,332,0C295.4,0,258,0,222,0C184.6,0,148,0,111,0C73.8,0,37,0,18,0L0,0Z"></path></svg>